<svg width="18" height="19" viewBox="0 0 18 19" fill="none" xmlns="http://www.w3.org/2000/svg">
<path d="M7.53571 2.38663C7.42141 3.65563 6.89671 6.02983 4.71871 8.31763C4.78351 7.47343 4.59361 6.84523 4.38391 6.42493C4.26781 6.19363 3.92581 6.23863 3.87631 6.49243C3.77551 7.00993 3.51451 7.81183 2.86381 8.91433C1.60471 11.0482 1.76401 16.9981 8.85331 16.9981C15.9426 16.9981 16.4196 10.7962 15.4125 8.27893C14.7555 6.63643 13.761 5.59783 13.1481 5.07403C12.9474 4.90213 12.636 5.03983 12.6279 5.30353C12.6117 5.83903 12.4992 6.59323 12.0465 7.09903C12.0348 6.17113 11.376 3.43603 8.48791 1.88083C8.07841 1.66033 7.57801 1.92403 7.53571 2.38663Z" fill="#FF5D50"/>
<path d="M12.3444 12.4251C12.2706 11.6331 11.2779 9.49739 8.60667 8.09338C8.42037 7.99528 8.20077 8.14829 8.22867 8.35709C8.33847 9.18059 8.45637 10.8267 7.80567 11.6043C7.87677 10.8942 7.48707 10.3065 7.16127 9.94649C7.01367 9.78449 6.74727 9.86458 6.71307 10.0815C6.65097 10.4739 6.48717 11.0706 6.07047 11.8032C5.33067 13.1046 4.54137 15.1197 8.26017 16.9827C8.45277 16.9926 8.64987 16.998 8.85327 16.998C9.05037 16.998 9.24117 16.9926 9.42837 16.9827C12.2103 15.9369 12.4776 13.8543 12.3444 12.4251Z" fill="#FFDF99"/>
</svg>
