<svg width="25" height="20" viewBox="0 0 25 20" fill="none" xmlns="http://www.w3.org/2000/svg">
<path d="M22.2082 2.54139L24.1238 0.690524V0.285156H17.4894L12.7613 12.176L7.38315 0.285156H0.426904V0.690524L2.6644 3.41183C2.88315 3.61295 2.99565 3.90833 2.96753 4.20372V14.8973C3.03628 15.2838 2.9144 15.6766 2.64565 15.9563L0.123779 19.0452V19.4443H7.26753V19.0389L4.74878 15.9594C4.4769 15.6797 4.34565 15.2901 4.4019 14.9004V5.64922L10.6738 19.4506H11.4019L16.7957 5.64922V16.6444C16.7957 16.9335 16.7957 16.9932 16.6082 17.1849L14.6675 19.0798V19.4852H24.08V19.0798L22.2082 17.2289C22.0457 17.1032 21.9613 16.8927 21.9957 16.6884V3.08188C21.9613 2.87763 22.0457 2.66709 22.2082 2.54139Z" fill="white"/>
</svg>
