<svg width="25" height="20" viewBox="0 0 25 20" fill="none" xmlns="http://www.w3.org/2000/svg">
<path d="M18.1781 0.238281C17.1126 0.239949 16.0631 0.498341 15.1186 0.991581C14.1741 1.48482 13.3624 2.19838 12.7521 3.07186C11.9425 1.91972 10.7872 1.0552 9.4534 0.603504C8.11965 0.151807 6.67674 0.136381 5.33363 0.559458C3.99053 0.982536 2.81696 1.82215 1.98288 2.95672C1.1488 4.09128 0.697511 5.46189 0.694373 6.87005V18.4937C0.691068 18.5157 0.691068 18.5381 0.694373 18.5601V18.6384C0.691705 18.6665 0.691705 18.6948 0.694373 18.7228V18.759C0.702733 18.7886 0.714892 18.817 0.730546 18.8434V18.8796L0.790835 18.964V19.0002L0.839066 19.0544L0.881268 19.0906V19.1207L0.935528 19.1629L1.04405 19.2353H1.35152L1.41181 19.2715H2.34026L2.41863 19.2293H2.46083C2.65376 19.1207 7.39246 16.5886 12.1432 19.2293H12.1794C12.2291 19.2555 12.2817 19.2758 12.3361 19.2895H12.4266C12.4686 19.2954 12.5112 19.2954 12.5532 19.2895H13.1078L13.2344 19.2353H13.2887C13.4816 19.1268 18.2203 16.5946 22.9711 19.2353H23.0133L23.2062 19.3137H23.2786C23.3725 19.4058 23.483 19.4794 23.6041 19.5307C23.6995 19.5279 23.7944 19.5158 23.8875 19.4945H23.9598C24.0306 19.4727 24.0992 19.4445 24.1648 19.4101L24.207 19.3498C24.2911 19.3024 24.3681 19.2435 24.4361 19.175C24.5022 19.1086 24.559 19.0336 24.6049 18.9519V18.9218C24.6026 18.9038 24.6026 18.8855 24.6049 18.8675C24.6246 18.8289 24.6407 18.7885 24.6531 18.7469L24.6893 18.6384C24.6927 18.6003 24.6927 18.562 24.6893 18.5239C24.6923 18.4817 24.6923 18.4394 24.6893 18.3973V6.87005C24.6896 5.13189 24.0075 3.46309 22.7897 2.2228C21.572 0.982513 19.916 0.269884 18.1781 0.238281ZM3.10593 16.5163V6.87005C3.10593 5.75078 3.55055 4.67735 4.342 3.88591C5.13344 3.09446 6.20687 2.64983 7.32614 2.64983C8.44541 2.64983 9.51884 3.09446 10.3103 3.88591C11.1017 4.67735 11.5464 5.75078 11.5464 6.87005V16.462C8.80585 15.5365 5.83431 15.5556 3.10593 16.5163ZM13.9579 16.5163V6.87005C13.9579 5.75078 14.4025 4.67735 15.194 3.88591C15.9854 3.09446 17.0589 2.64983 18.1781 2.64983C19.2974 2.64983 20.3708 3.09446 21.1623 3.88591C21.9537 4.67735 22.3983 5.75078 22.3983 6.87005V16.462C19.6578 15.5365 16.6863 15.5556 13.9579 16.5163Z" fill="white"/>
</svg>
