<svg width="24" height="24" viewBox="0 0 24 24" fill="none" xmlns="http://www.w3.org/2000/svg">
<path d="M18.0415 20.05L15.9585 21.25C14.5169 22.0808 13.7954 22.4977 13.0292 22.6608C12.3506 22.8049 11.6494 22.8049 10.9708 22.6608C10.2046 22.4977 9.48308 22.0823 8.04154 21.25L5.95846 20.05C4.51692 19.2177 3.79538 18.8023 3.27077 18.2192C2.80668 17.7046 2.45601 17.0982 2.24154 16.4392C2 15.6946 2 14.8639 2 13.2008V10.8008C2 9.13616 2 8.30539 2.24154 7.56078C2.45692 6.90078 2.80769 6.29462 3.27231 5.78078C3.79538 5.1977 4.51692 4.78231 5.95846 3.95001L8.04154 2.75001C9.48308 1.91924 10.2046 1.50231 10.9708 1.33924C11.6494 1.19511 12.3506 1.19511 13.0292 1.33924C13.7954 1.50231 14.5169 1.9177 15.9585 2.75001L18.0415 3.95001C19.4831 4.78231 20.2046 5.1977 20.7292 5.78078C21.1923 6.29462 21.5446 6.90078 21.7585 7.56078C22 8.30539 22 9.13616 22 10.8008V13.2008C22 14.8654 22 15.6962 21.7585 16.4408C21.5431 17.1008 21.1923 17.7069 20.7277 18.2208C20.2046 18.8039 19.4831 19.2177 18.0415 20.05ZM9.19385 19.25C10.0277 19.7315 10.52 20.0069 10.8477 20.17V14.8515C10.8476 14.2146 10.6717 13.59 10.3395 13.0466C10.0072 12.5032 9.53148 12.062 8.96462 11.7715L4.31846 9.44847C4.31077 9.78231 4.30769 10.2177 4.30769 10.7992V13.1992C4.30769 15.0192 4.33385 15.4115 4.43692 15.7254C4.55077 16.0777 4.73846 16.4008 4.98462 16.6746C5.20615 16.9208 5.53538 17.1408 7.11231 18.05L9.19385 19.25ZM13.1554 20.1685C13.4815 20.0069 13.9738 19.7315 14.8062 19.2515L16.8877 18.0515C18.4662 17.1408 18.7938 16.9208 19.0154 16.6746C19.2615 16.4008 19.4492 16.0762 19.5631 15.7254C19.6646 15.4115 19.6923 15.0192 19.6923 13.1992V10.8008C19.6923 10.2192 19.6892 9.78385 19.6831 9.45001L15.0677 11.7577L15.0569 11.7623C14.485 12.0511 14.0044 12.4929 13.6687 13.0385C13.3329 13.5842 13.1553 14.2124 13.1554 14.8531V20.17V20.1685ZM18.9354 7.24231C18.7046 7.02078 18.2892 6.75616 16.8892 5.94847L14.8062 4.74847C13.2292 3.8377 12.8738 3.66385 12.5492 3.59462C12.1871 3.51779 11.8129 3.51779 11.4508 3.59462C11.1262 3.66385 10.7708 3.8377 9.19385 4.74847L7.11231 5.94847C5.71231 6.75616 5.29692 7.02078 5.06615 7.24078L9.96462 9.69308L10.0046 9.71308L10.4508 9.93616C10.9315 10.1766 11.4617 10.3018 11.9992 10.3018C12.5368 10.3018 13.0669 10.1766 13.5477 9.93616L14.0215 9.69924L14.0354 9.69308L18.9338 7.24385L18.9354 7.24231Z" fill="#50B4FF"/>
</svg>
