<svg width="25" height="25" viewBox="0 0 25 25" fill="none" xmlns="http://www.w3.org/2000/svg">
<g clip-path="url(#clip0_282_40)">
<path fill-rule="evenodd" clip-rule="evenodd" d="M14.9447 9.05636C15.6789 8.69027 16.613 8.15141 17.5483 7.41308C17.7455 7.82261 17.7671 8.17997 17.6655 8.46851C17.5935 8.67188 17.4578 8.84876 17.2794 8.98949C17.0862 9.14156 16.8449 9.25229 16.5782 9.31211C16.0722 9.42611 15.4813 9.35957 14.9447 9.05636ZM15.072 12.8072L16.0438 13.3686C14.0595 14.4808 13.5201 16.5459 12.8793 18.5573C12.2385 16.5459 11.699 14.4808 9.71478 13.3686L10.6866 12.8072C10.7806 12.7717 10.861 12.7073 10.9162 12.6233C10.9714 12.5393 10.9985 12.44 10.9938 12.3396C10.9048 10.4559 11.4134 9.62285 12.0995 9.0998C12.3456 8.91245 12.6142 8.81837 12.8793 8.81837C13.1443 8.81837 13.4129 8.91245 13.6591 9.0998C14.3452 9.62285 14.8538 10.4559 14.7648 12.3396C14.7601 12.44 14.7872 12.5393 14.8424 12.6233C14.8976 12.7073 14.978 12.7717 15.072 12.8072ZM12.8793 0.50708C14.0026 0.53724 15.1288 0.755321 16.1061 1.17956C16.7829 1.47372 17.4145 1.86228 17.9863 2.32691C18.2446 2.53667 18.4571 2.73932 18.6915 2.9726C19.3232 2.99444 20.2465 2.29259 20.6751 1.63588C19.9374 4.05428 16.5712 6.91019 14.2407 8.003L14.2384 8.00156C13.8201 7.68221 13.3497 7.52252 12.8793 7.52252C12.4088 7.52252 11.9385 7.68221 11.5202 8.00156L11.5179 8.003C9.18734 6.91019 5.82119 4.05428 5.0835 1.63588C5.51207 2.29259 6.43535 2.99444 7.0671 2.9726C7.30142 2.73941 7.51406 2.53667 7.77222 2.32691C8.34407 1.86228 8.97558 1.47372 9.65238 1.17956C10.6298 0.755321 11.756 0.53724 12.8793 0.50708ZM10.8138 9.05636C10.0797 8.69027 9.1455 8.15141 8.2103 7.41308C8.01311 7.82261 7.99151 8.17997 8.09303 8.46851C8.1651 8.67188 8.30078 8.84876 8.4791 8.98949C8.67239 9.14156 8.91366 9.25229 9.18038 9.31211C9.68646 9.42611 10.2773 9.35957 10.8138 9.05636Z" fill="#5AB8FD"/>
<path fill-rule="evenodd" clip-rule="evenodd" d="M18.5727 6.50832C19.0875 5.98872 19.5413 5.4136 19.9061 4.90039L20.0914 5.24911C20.6878 6.44248 20.9977 7.63104 20.9977 8.96863L20.9964 11.0912L21.0077 12.1915C21.0509 14.8928 21.6353 17.6258 22.9594 20.1269L20.1891 17.8932L18.229 21.0739L16.1699 19.1354L12.8793 24.4754L9.58875 19.1356L7.52963 21.0739L5.56955 17.8932L2.79932 20.1271C4.12331 17.6259 4.7078 14.8929 4.75106 12.1916L4.76228 11.0913L4.76099 8.96872C4.76099 7.63104 5.07083 6.44248 5.66747 5.2492L5.85266 4.90048C6.21746 5.41368 6.67107 5.98872 7.18604 6.50839L7.02524 6.8424C6.71282 7.49112 6.60938 8.21647 6.85274 8.90632C7.00964 9.35064 7.29596 9.73168 7.66508 10.0226C8.02346 10.305 8.44763 10.4954 8.89172 10.5954C9.18098 10.6606 9.4757 10.6874 9.7685 10.6782C9.70019 11.0655 9.67034 11.4672 9.66842 11.8765L7.05531 13.3858L9.07178 14.5161C9.23296 14.6064 9.38639 14.71 9.53051 14.8256C11.193 16.3182 12.1925 20.734 12.8794 22.8909C13.5663 20.734 14.5658 16.3182 16.2283 14.8256C16.3724 14.7099 16.5259 14.6064 16.6871 14.5161L18.7035 13.3858L16.0903 11.8765C16.0884 11.4672 16.0586 11.0655 15.9903 10.6782C16.2831 10.6874 16.5778 10.6606 16.8671 10.5954C17.3112 10.4954 17.7354 10.305 18.0937 10.0226C18.4628 9.73168 18.7491 9.35064 18.906 8.90632C19.1494 8.21647 19.0458 7.49119 18.7335 6.8424L18.5727 6.50832Z" fill="#5AB8FD"/>
</g>
<defs>
<clipPath id="clip0_282_40">
<rect width="24" height="24" fill="white" transform="translate(0.879395 0.50708)"/>
</clipPath>
</defs>
</svg>
