<svg width="13" height="12" viewBox="0 0 13 12" fill="none" xmlns="http://www.w3.org/2000/svg">
<path fill-rule="evenodd" clip-rule="evenodd" d="M6.07616 1.5C8.56163 1.5 10.5762 3.51454 10.5762 6C10.5762 8.48546 8.56163 10.5 6.07616 10.5C3.59071 10.5 1.57616 8.48546 1.57616 6C1.57616 3.51454 3.59071 1.5 6.07616 1.5Z" stroke="#50B4FF" stroke-linecap="round" stroke-linejoin="round"/>
<path fill-rule="evenodd" clip-rule="evenodd" d="M6.0762 1.5C7.00151 1.5 7.75113 3.51454 7.75113 6C7.75113 8.48546 7.00151 10.5 6.0762 10.5C5.15088 10.5 4.40118 8.48546 4.40118 6C4.40118 3.51454 5.15088 1.5 6.0762 1.5Z" stroke="#50B4FF" stroke-linecap="round" stroke-linejoin="round"/>
<path fill-rule="evenodd" clip-rule="evenodd" d="M10.5762 5.99922C10.5762 6.92449 8.56163 7.67415 6.07616 7.67415C3.59071 7.67415 1.57616 6.92449 1.57616 5.99922C1.57616 5.0739 3.59071 4.3242 6.07616 4.3242C8.56163 4.3242 10.5762 5.0739 10.5762 5.99922Z" stroke="#50B4FF" stroke-linecap="round" stroke-linejoin="round"/>
</svg>
