<svg width="25" height="22" viewBox="0 0 25 22" fill="none" xmlns="http://www.w3.org/2000/svg">
<path fill-rule="evenodd" clip-rule="evenodd" d="M22.5519 0.131836C23.1772 0.150244 23.7705 0.412486 24.2049 0.862517C24.8189 1.44837 25.0978 2.30321 24.9476 3.13841L21.7973 19.429C21.6592 20.1869 21.1768 20.8376 20.4916 21.1898L20.0964 21.3935C19.2729 21.7965 18.2916 21.6942 17.5689 21.1299L13.8796 18.2192L11.975 20.0159C11.5911 20.3832 11.0809 20.5891 10.5496 20.5909C10.4064 20.6086 10.2616 20.6086 10.1184 20.5909C9.35697 20.4189 8.75045 19.8445 8.53722 19.0936L6.98003 13.8351L1.81735 12.1102C1.30308 11.9432 0.964418 11.4524 0.990845 10.9124V10.1338C0.952457 9.6157 1.25239 9.13193 1.7335 8.93594L21.6176 0.32349C21.9131 0.197629 22.2308 0.132453 22.5519 0.131836ZM19.6784 19.6329C19.8662 19.5318 19.9982 19.3513 20.0378 19.1418L23.1402 2.85118C23.1856 2.61355 23.1143 2.36856 22.9485 2.19237C22.8339 2.05963 22.6687 1.98135 22.4933 1.97676C22.4225 1.95995 22.3486 1.95995 22.2777 1.97676L2.78892 10.4335L8.19117 12.2782C8.35409 12.3558 8.54332 12.3558 8.70624 12.2782L17.7619 6.56448C17.9372 6.4839 18.1448 6.53334 18.265 6.68426C18.3504 6.76434 18.3945 6.87904 18.3848 6.9957C18.3806 7.1146 18.3288 7.22683 18.241 7.30714C16.8755 8.45706 14.5876 10.4694 10.7665 14.0629C10.6445 14.1781 10.5752 14.3384 10.5749 14.5061V18.7345C10.6354 18.7313 10.6937 18.7105 10.7426 18.6746L13.4018 16.1711C13.6239 15.9742 13.9582 15.9742 14.1804 16.1711L18.6842 19.7646C18.7813 19.8475 18.904 19.894 19.0316 19.8964C19.119 19.8967 19.2052 19.8762 19.2831 19.8365L19.6784 19.6329Z" fill="white"/>
</svg>
