<svg width="19" height="16" viewBox="0 0 19 16" fill="none" xmlns="http://www.w3.org/2000/svg">
<path fill-rule="evenodd" clip-rule="evenodd" d="M6.79817 1.0187L7.30024 0.95752L7.48088 1.42548C7.48088 1.42548 7.66667 1.9006 7.78238 2.44275C8.51138 2.34317 9.10602 2.32039 9.44995 2.32039C10.0078 2.32468 10.5649 2.36555 11.1175 2.44275C11.2326 1.9006 11.4184 1.42548 11.4184 1.42548L11.5997 0.95752L12.1017 1.0187C12.1017 1.0187 14.355 1.26797 15.9987 2.60481H16.0193L16.0392 2.62564C16.3897 2.95144 16.5523 3.3483 16.7854 3.91717L16.7854 3.91718L16.8229 4.00869C17.1222 4.75181 17.377 5.51251 17.586 6.28666C18.063 8.03288 18.45 10.1481 18.45 12.0831V12.2458L18.3696 12.4085C17.7743 13.4662 16.7175 14.1398 15.7377 14.6051C14.7587 15.0705 13.912 15.3172 13.327 15.3373L12.9458 15.3575L12.7446 15.0119L12.0413 13.7506C11.2956 13.9211 10.4367 14.0356 9.44995 14.0356C8.46317 14.0356 7.60431 13.9211 6.85859 13.7506L6.15531 15.0119L5.95474 15.3575L5.57288 15.3373C4.98788 15.3172 4.14124 15.0705 3.16217 14.6051C2.18245 14.1398 1.12559 13.4662 0.530308 12.4085L0.449951 12.2458V12.0831C0.449951 10.1481 0.836951 8.03288 1.31395 6.28666C1.52288 5.51251 1.7777 4.75181 2.07702 4.00869L2.11582 3.91417C2.34818 3.34744 2.5108 2.95082 2.86067 2.62499L2.88124 2.60547H2.90052C4.54559 1.26797 6.79817 1.0187 6.79817 1.0187ZM6.48116 2.64288L6.48116 2.64287C6.46025 2.58147 6.438 2.51614 6.41575 2.44279C5.81596 2.5645 4.67039 2.84436 3.7241 3.60195C3.72519 3.6025 3.71516 3.61956 3.69658 3.65115L3.69658 3.65116C3.62681 3.76983 3.43653 4.09351 3.26189 4.51704C2.98619 5.2073 2.75156 5.91365 2.55925 6.63229C2.12403 8.22101 1.78268 10.156 1.75568 11.8593C2.15939 12.4847 2.91025 13.049 3.70353 13.4252C4.20158 13.6639 4.72855 13.835 5.27082 13.9342L5.59225 13.3848C5.40132 13.3139 5.21296 13.2351 5.04968 13.1609C4.06032 12.721 3.52289 12.2459 3.52289 12.2459L4.36696 11.2696C4.36696 11.2696 4.72825 11.6054 5.57232 11.9816C6.41575 12.3578 7.70403 12.734 9.44939 12.734C11.1947 12.734 12.4837 12.3578 13.3265 11.9816C14.1705 11.6054 14.5318 11.2696 14.5318 11.2696L15.3759 12.2459C15.3759 12.2459 14.8385 12.721 13.8491 13.1609C13.6858 13.2351 13.4975 13.3132 13.3065 13.3848L13.628 13.9335C14.1699 13.8347 14.6967 13.664 15.1946 13.4258C15.9885 13.049 16.7387 12.4847 17.1437 11.8593C17.1161 10.156 16.7747 8.22101 16.3402 6.63229C16.1139 5.80377 15.8632 5.06896 15.6369 4.51704C15.4622 4.09351 15.272 3.76984 15.2022 3.65116C15.1836 3.61956 15.1736 3.6025 15.1747 3.60195C14.2284 2.84436 13.0828 2.5645 12.483 2.44214C12.4596 2.52008 12.4361 2.58863 12.4142 2.65258L12.4141 2.65267L12.4027 2.68621C13.2339 2.89513 14.1204 3.21274 14.9336 3.72366L14.2509 4.82229C12.5833 3.77442 10.1874 3.62213 9.44939 3.62213C8.71075 3.62213 6.31546 3.77442 4.64789 4.82229L3.96518 3.72366C4.77839 3.21274 5.66489 2.89513 6.4961 2.68686L6.48116 2.64288ZM7.19998 6.87622C6.70305 6.87622 6.26333 7.16324 5.99462 7.52707C5.72591 7.89089 5.59283 8.33802 5.59283 8.82876C5.59283 9.3195 5.72591 9.76663 5.99462 10.1305C6.26333 10.4943 6.70305 10.7813 7.19998 10.7813C7.69691 10.7813 8.13662 10.4943 8.40533 10.1305C8.67405 9.76663 8.80712 9.3195 8.80712 8.82876C8.80712 8.33802 8.67405 7.89089 8.40533 7.52707C8.13662 7.16324 7.69691 6.87622 7.19998 6.87622ZM10.4946 7.52707C10.7633 7.16324 11.203 6.87622 11.7 6.87622C12.1969 6.87622 12.6366 7.16324 12.9053 7.52707C13.174 7.89089 13.3071 8.33802 13.3071 8.82876C13.3071 9.3195 13.174 9.76663 12.9053 10.1305C12.6366 10.4943 12.1969 10.7813 11.7 10.7813C11.203 10.7813 10.7633 10.4943 10.4946 10.1305C10.2259 9.76663 10.0928 9.3195 10.0928 8.82876C10.0928 8.33802 10.2259 7.89089 10.4946 7.52707ZM7.20007 8.17773C7.23543 8.17773 7.28043 8.19075 7.36078 8.30009C7.44114 8.40879 7.5215 8.59948 7.5215 8.82858C7.5215 9.05768 7.44114 9.24838 7.36078 9.35772C7.28043 9.46641 7.23543 9.47943 7.20007 9.47943C7.16471 9.47943 7.11971 9.46641 7.03936 9.35707C6.93304 9.202 6.87689 9.01734 6.87864 8.82858C6.87864 8.59948 6.959 8.40879 7.03936 8.29944C7.11971 8.19075 7.16471 8.17773 7.20007 8.17773ZM11.8608 8.30009C11.7804 8.19075 11.7354 8.17773 11.7001 8.17773C11.6647 8.17773 11.6197 8.19075 11.5394 8.29944C11.459 8.40879 11.3786 8.59948 11.3786 8.82858C11.3769 9.01734 11.433 9.202 11.5394 9.35707C11.6197 9.46641 11.6647 9.47943 11.7001 9.47943C11.7354 9.47943 11.7804 9.46641 11.8608 9.35772C11.9411 9.24838 12.0215 9.05768 12.0215 8.82858C12.0215 8.59948 11.9411 8.40879 11.8608 8.30009Z" fill="#50B4FF"/>
</svg>
