<svg width="25" height="20" viewBox="0 0 25 20" fill="none" xmlns="http://www.w3.org/2000/svg">
<path fill-rule="evenodd" clip-rule="evenodd" d="M9.01995 0.366729L9.68938 0.285156L9.93024 0.909102C9.93024 0.909102 10.1779 1.54259 10.3322 2.26547C11.3042 2.1327 12.0971 2.10232 12.5557 2.10232C13.2995 2.10804 14.0422 2.16253 14.7791 2.26547C14.9325 1.54259 15.1802 0.909102 15.1802 0.909102L15.422 0.285156L16.0914 0.366729C16.0914 0.366729 19.0957 0.699095 21.2874 2.48155H21.3148L21.3414 2.50932C21.8087 2.94372 22.0255 3.47287 22.3362 4.23136L22.3862 4.35339C22.7853 5.3442 23.1251 6.35847 23.4037 7.39068C24.0397 9.71897 24.5557 12.5393 24.5557 15.1193V15.3362L24.4485 15.5532C23.6548 16.9633 22.2457 17.8615 20.9394 18.482C19.6339 19.1025 18.5051 19.4314 17.7251 19.4583L17.2168 19.4852L16.9485 19.0244L16.0108 17.3426C15.0165 17.5699 13.8714 17.7227 12.5557 17.7227C11.24 17.7227 10.0948 17.5699 9.10052 17.3426L8.16281 19.0244L7.89538 19.4852L7.38624 19.4583C6.60624 19.4314 5.47738 19.1025 4.17195 18.482C2.86566 17.8615 1.45652 16.9633 0.662807 15.5532L0.555664 15.3362V15.1193C0.555664 12.5393 1.07166 9.71897 1.70766 7.39068C1.98623 6.35847 2.32599 5.3442 2.72509 4.35339L2.77682 4.22735C3.08664 3.47172 3.30346 2.94289 3.76995 2.50845L3.79738 2.48242H3.82309C6.01652 0.699095 9.01995 0.366729 9.01995 0.366729ZM8.59736 2.53237C8.56948 2.45051 8.53981 2.3634 8.51014 2.2656C7.71043 2.42787 6.183 2.80103 4.92129 3.81114C4.92273 3.81187 4.90936 3.83461 4.88461 3.87671L4.8846 3.87672L4.88459 3.87675L4.88458 3.87676C4.79156 4.03499 4.53786 4.46656 4.305 5.03126C3.9374 5.95161 3.62456 6.8934 3.36814 7.8516C2.78786 9.96989 2.33271 12.5499 2.29671 14.8209C2.835 15.6548 3.83614 16.4072 4.89386 16.9088C5.55791 17.2271 6.26055 17.4552 6.98357 17.5874L7.41214 16.855C7.15757 16.7604 6.90643 16.6554 6.68871 16.5565C5.36957 15.9698 4.653 15.3363 4.653 15.3363L5.77843 14.0347C5.77843 14.0347 6.26014 14.4824 7.38557 14.984C8.51014 15.4856 10.2279 15.9872 12.555 15.9872C14.8821 15.9872 16.6007 15.4856 17.7244 14.984C18.8499 14.4824 19.3316 14.0347 19.3316 14.0347L20.457 15.3363C20.457 15.3363 19.7404 15.9698 18.4213 16.5565C18.2036 16.6554 17.9524 16.7595 17.6979 16.855L18.1264 17.5865C18.8491 17.4549 19.5514 17.2273 20.2153 16.9097C21.2739 16.4072 22.2741 15.6548 22.8141 14.8209C22.7773 12.5499 22.3221 9.96989 21.7427 7.8516C21.441 6.7469 21.1067 5.76715 20.805 5.03126C20.5721 4.46656 20.3184 4.03499 20.2254 3.87675L20.2254 3.87673L20.2252 3.87645C20.2006 3.83452 20.1873 3.81187 20.1887 3.81114C18.927 2.80103 17.3996 2.42787 16.5999 2.26473C16.5685 2.36871 16.5372 2.46015 16.508 2.54545L16.4927 2.59015C17.601 2.86871 18.783 3.2922 19.8673 3.97342L18.957 5.43826C16.7336 4.04111 13.539 3.83804 12.555 3.83804C11.5701 3.83804 8.37643 4.04111 6.153 5.43826L5.24271 3.97342C6.327 3.2922 7.509 2.86871 8.61728 2.59102L8.59736 2.53237ZM9.55568 8.17671C8.89311 8.17671 8.30682 8.55941 7.94854 9.04451C7.59025 9.52961 7.41282 10.1258 7.41282 10.7801C7.41282 11.4344 7.59025 12.0306 7.94854 12.5157C8.30682 13.0008 8.89311 13.3835 9.55568 13.3835C10.2183 13.3835 10.8045 13.0008 11.1628 12.5157C11.5211 12.0306 11.6985 11.4344 11.6985 10.7801C11.6985 10.1258 11.5211 9.52961 11.1628 9.04451C10.8045 8.55941 10.2183 8.17671 9.55568 8.17671ZM13.9485 9.04451C14.3068 8.55941 14.8931 8.17671 15.5557 8.17671C16.2183 8.17671 16.8045 8.55941 17.1628 9.04451C17.5211 9.52961 17.6985 10.1258 17.6985 10.7801C17.6985 11.4344 17.5211 12.0306 17.1628 12.5157C16.8045 13.0008 16.2183 13.3835 15.5557 13.3835C14.8931 13.3835 14.3068 13.0008 13.9485 12.5157C13.5903 12.0306 13.4128 11.4344 13.4128 10.7801C13.4128 10.1258 13.5903 9.52961 13.9485 9.04451ZM9.55571 9.91198C9.60285 9.91198 9.66285 9.92934 9.76999 10.0751C9.87714 10.22 9.98428 10.4743 9.98428 10.7798C9.98428 11.0852 9.87714 11.3395 9.76999 11.4853C9.66285 11.6302 9.60285 11.6476 9.55571 11.6476C9.50856 11.6476 9.44857 11.6302 9.34142 11.4844C9.19967 11.2777 9.1248 11.0315 9.12714 10.7798C9.12714 10.4743 9.23428 10.22 9.34142 10.0743C9.44857 9.92934 9.50856 9.91198 9.55571 9.91198ZM15.77 10.0751C15.6629 9.92934 15.6029 9.91198 15.5557 9.91198C15.5086 9.91198 15.4486 9.92934 15.3414 10.0743C15.2343 10.22 15.1271 10.4743 15.1271 10.7798C15.1248 11.0315 15.1997 11.2777 15.3414 11.4844C15.4486 11.6302 15.5086 11.6476 15.5557 11.6476C15.6029 11.6476 15.6629 11.6302 15.77 11.4853C15.8771 11.3395 15.9843 11.0852 15.9843 10.7798C15.9843 10.4743 15.8771 10.22 15.77 10.0751Z" fill="white"/>
</svg>
