<svg width="24" height="24" viewBox="0 0 24 24" fill="none" xmlns="http://www.w3.org/2000/svg">
<path d="M12.4819 14.6836C13.9924 14.6836 15.2168 13.4592 15.2168 11.9488C15.2168 10.4383 13.9924 9.2139 12.4819 9.2139C10.9715 9.2139 9.74707 10.4383 9.74707 11.9488C9.74707 13.4592 10.9715 14.6836 12.4819 14.6836Z" stroke="#43474E" stroke-width="2" stroke-linejoin="round"/>
<path d="M12.5013 18.2587C13.2911 18.2587 13.9313 18.8989 13.9313 19.6886C13.9313 20.4784 13.2911 21.1186 12.5013 21.1186C11.7116 21.1186 11.0713 20.4784 11.0713 19.6886C11.0713 18.8989 11.7116 18.2587 12.5013 18.2587Z" stroke="#43474E" stroke-width="2" stroke-linejoin="round"/>
<path d="M12.5039 18.2584V15.0234" stroke="#43474E" stroke-width="2" stroke-linejoin="round"/>
<path d="M12.5013 5.97866C13.2911 5.97866 13.9313 5.33842 13.9313 4.54865C13.9313 3.75889 13.2911 3.11865 12.5013 3.11865C11.7116 3.11865 11.0713 3.75889 11.0713 4.54865C11.0713 5.33842 11.7116 5.97866 12.5013 5.97866Z" stroke="#43474E" stroke-width="2" stroke-linejoin="round"/>
<path d="M12.5039 5.97803V9.21285" stroke="#43474E" stroke-width="2" stroke-linejoin="round"/>
<path d="M6.36097 12.1189C6.36097 12.9087 5.72074 13.549 4.93098 13.549C4.14121 13.549 3.50098 12.9087 3.50098 12.1189C3.50098 11.3292 4.14121 10.689 4.93098 10.689C5.72074 10.689 6.36097 11.3292 6.36097 12.1189Z" stroke="#43474E" stroke-width="2" stroke-linejoin="round"/>
<path d="M6.36035 12.1216H9.5952" stroke="#43474E" stroke-width="2" stroke-linejoin="round"/>
<path d="M18.641 12.1189C18.641 12.9087 19.2812 13.549 20.071 13.549C20.8607 13.549 21.501 12.9087 21.501 12.1189C21.501 11.3292 20.8607 10.689 20.071 10.689C19.2812 10.689 18.641 11.3292 18.641 12.1189Z" stroke="#43474E" stroke-width="2" stroke-linejoin="round"/>
<path d="M18.6391 12.1216H15.4043" stroke="#43474E" stroke-width="2" stroke-linejoin="round"/>
<path d="M8.15751 16.46C8.71596 17.0185 8.71596 17.9239 8.15751 18.4823C7.59906 19.0408 6.69363 19.0408 6.13518 18.4823C5.57673 17.9239 5.57673 17.0185 6.13518 16.46C6.69363 15.9016 7.59906 15.9016 8.15751 16.46Z" stroke="#43474E" stroke-width="2" stroke-linejoin="round"/>
<path d="M8.16211 16.462L10.4495 14.1746" stroke="#43474E" stroke-width="2" stroke-linejoin="round"/>
<path d="M16.8424 7.77666C17.4008 8.33511 18.3062 8.33511 18.8647 7.77666C19.4231 7.21819 19.4231 6.31277 18.8647 5.75432C18.3062 5.19587 17.4008 5.19587 16.8424 5.75432C16.2839 6.31276 16.2839 7.21819 16.8424 7.77666Z" stroke="#43474E" stroke-width="2" stroke-linejoin="round"/>
<path d="M16.8421 7.77975L14.5547 10.0672" stroke="#43474E" stroke-width="2" stroke-linejoin="round"/>
<path d="M8.15964 7.77666C7.60119 8.33511 6.69573 8.33511 6.13728 7.77666C5.57883 7.21819 5.57883 6.31277 6.13728 5.75432C6.69573 5.19587 7.60119 5.19587 8.15964 5.75432C8.71809 6.31277 8.71809 7.21819 8.15964 7.77666Z" stroke="#43474E" stroke-width="2" stroke-linejoin="round"/>
<path d="M8.15625 7.77908L10.4436 10.0664" stroke="#43474E" stroke-width="2" stroke-linejoin="round"/>
<path d="M16.8415 16.46C16.2831 17.0185 16.2831 17.9239 16.8415 18.4823C17.3999 19.0408 18.3054 19.0408 18.8638 18.4823C19.4223 17.9239 19.4223 17.0185 18.8638 16.46C18.3054 15.9016 17.4 15.9016 16.8415 16.46Z" stroke="#43474E" stroke-width="2" stroke-linejoin="round"/>
<path d="M16.8392 16.4627L14.5518 14.1753" stroke="#43474E" stroke-width="2" stroke-linejoin="round"/>
</svg>
