<svg width="19" height="16" viewBox="0 0 19 16" fill="none" xmlns="http://www.w3.org/2000/svg">
<path d="M17.013 2.64921L18.4497 1.26106V0.957031H13.4739L9.92783 9.87513L5.89424 0.957031H0.677051V1.26106L2.35518 3.30204C2.51924 3.45287 2.60361 3.67441 2.58252 3.89595V11.9161C2.63408 12.206 2.54268 12.5006 2.34111 12.7104L0.449707 15.0271V15.3264H5.80752V15.0224L3.91846 12.7127C3.71455 12.503 3.61611 12.2107 3.6583 11.9185V4.98008L8.36221 15.3311H8.9083L12.9536 4.98008V13.2265C12.9536 13.4433 12.9536 13.4881 12.813 13.6319L11.3575 15.053V15.357H18.4169V15.053L17.013 13.6649C16.8911 13.5706 16.8278 13.4127 16.8536 13.2595V3.05458C16.8278 2.90138 16.8911 2.74348 17.013 2.64921Z" fill="#50B4FF"/>
</svg>
