<svg width="19" height="17" viewBox="0 0 19 17" fill="none" xmlns="http://www.w3.org/2000/svg">
<path fill-rule="evenodd" clip-rule="evenodd" d="M16.623 0.0927734C17.0919 0.10658 17.5369 0.303261 17.8627 0.640784C18.3232 1.08017 18.5324 1.7213 18.4197 2.3477L16.057 14.5656C15.9535 15.1341 15.5916 15.6221 15.0778 15.8863L14.7813 16.039C14.1637 16.3413 13.4277 16.2645 12.8857 15.8413L10.1187 13.6583L8.69031 15.0059C8.4024 15.2813 8.01969 15.4357 7.62124 15.4371C7.51384 15.4503 7.40522 15.4503 7.29782 15.4371C6.72677 15.308 6.27188 14.8773 6.11196 14.3141L4.94407 10.3702L1.07206 9.07656C0.686352 8.95133 0.432359 8.58322 0.452179 8.17818V7.59423C0.423388 7.20567 0.64834 6.84284 1.00917 6.69585L15.9222 0.236514C16.1438 0.142119 16.3821 0.0932365 16.623 0.0927734ZM14.4678 14.7187C14.6086 14.6429 14.7076 14.5075 14.7373 14.3504L17.0641 2.13244C17.0982 1.95421 17.0447 1.77047 16.9204 1.63833C16.8344 1.53877 16.7105 1.48006 16.579 1.47662C16.5258 1.46401 16.4704 1.46401 16.4173 1.47662L1.80066 7.81917L5.85234 9.20267C5.97454 9.26087 6.11646 9.26087 6.23865 9.20267L13.0304 4.91741C13.1618 4.85698 13.3176 4.89405 13.4077 5.00725C13.4717 5.0673 13.5048 5.15333 13.4975 5.24082C13.4944 5.33 13.4556 5.41417 13.3897 5.4744C12.3656 6.33685 10.6497 7.84612 7.78386 10.5413C7.69233 10.6276 7.64035 10.7478 7.64012 10.8737V14.0449C7.68552 14.0425 7.72923 14.0269 7.76589 14L9.76029 12.1224C9.92692 11.9747 10.1776 11.9747 10.3442 12.1224L13.7221 14.8175C13.7949 14.8796 13.887 14.9146 13.9827 14.9164C14.0482 14.9166 14.1129 14.9012 14.1713 14.8714L14.4678 14.7187Z" fill="#50B4FF"/>
</svg>
