<svg width="19" height="17" viewBox="0 0 19 17" fill="none" xmlns="http://www.w3.org/2000/svg">
<path d="M17.4719 4.87479C17.5603 4.87479 17.6327 4.94711 17.6327 5.03551V14.7185C17.6327 14.8069 17.5603 14.8793 17.4719 14.8793H2.20408C2.11569 14.8793 2.04337 14.8069 2.04337 14.7185V5.03551C2.04337 4.94711 2.11569 4.87479 2.20408 4.87479H17.4719ZM17.4719 3.66943H2.20408C1.44873 3.66943 0.838013 4.28015 0.838013 5.03551V14.7185C0.838013 15.4739 1.44873 16.0846 2.20408 16.0846H17.4719C18.2273 16.0846 18.838 15.4739 18.838 14.7185V5.03551C18.838 4.28015 18.2273 3.66943 17.4719 3.66943Z" fill="white"/>
<path d="M3.6304 3.66952L3.9458 2.1789C3.96388 2.09452 4.03821 2.05033 4.1025 2.05033C4.11455 2.05033 4.1246 2.05234 4.13665 2.05435L11.7746 3.66952H17.4719C17.5402 3.66952 17.6065 3.67555 17.6708 3.68359L4.38576 0.875105C4.29134 0.855015 4.19491 0.844971 4.1025 0.844971C3.46968 0.844971 2.90317 1.28694 2.76656 1.92979L2.39893 3.66952H3.6304ZM17.6186 8.45479V10.9157H13.5605C12.8815 10.9157 12.3291 10.3633 12.3291 9.68426C12.3291 9.00524 12.8815 8.45278 13.5605 8.45278H17.6186M18.8239 7.24944H13.5605C12.2146 7.24944 11.1237 8.34028 11.1237 9.68627C11.1237 11.0322 12.2146 12.1231 13.5605 12.1231H18.8239V7.24944Z" fill="white"/>
<path d="M13.8318 8.99121C13.4481 8.99121 13.1367 9.30259 13.1367 9.6863C13.1367 10.07 13.4481 10.3814 13.8318 10.3814C14.2155 10.3814 14.5269 10.07 14.5269 9.6863C14.5269 9.30259 14.2155 8.99121 13.8318 8.99121Z" fill="white"/>
</svg>
